# xmcd CD database file
#
# Track frame offsets:
#	150
#	7068
#	36761
#	58048
#	73455
#	89711
#	115082
#	131978
#	179570
#	191341
#	203699
#	232493
#
# Disc length: 3346 seconds
#
# Revision: 0
# Processed by: cddbd v1.5.2PL0 Copyright (c) Steve Scherf et al.
# Submitted via: CDex 1.70beta2
#
DISCID=bd0d100c
DTITLE=Raghunandan Panishkar - Garbham Dehi
DYEAR=1900
DGENRE=New Age
TTITLE0=Intro
TTITLE1=Santaan gopal stotra
TTITLE2=Praja patishcharati garbhe
TTITLE3=Adityam garbham
TTITLE4=Garbham dehi
TTITLE5=Sanaha pitev
TTITLE6=Pitu pranasya janmana
TTITLE7=Vriksho vapuhu
TTITLE8=Ojashcha tejascha
TTITLE9=Om bhustvayi dadhami
TTITLE10=Om imam
TTITLE11=Om yena patsavita
EXTD=
EXTT0=
EXTT1=
EXTT2=
EXTT3=
EXTT4=
EXTT5=
EXTT6=
EXTT7=
EXTT8=
EXTT9=
EXTT10=
EXTT11=
PLAYORDER=
